<?xml version="1.0" standalone="no"?>
<!DOCTYPE svg PUBLIC "-//W3C//DTD SVG 20010904//EN"
 "http://www.w3.org/TR/2001/REC-SVG-20010904/DTD/svg10.dtd">
<svg version="1.0" xmlns="http://www.w3.org/2000/svg"
 width="105.000000pt" height="105.000000pt" viewBox="0 0 105.000000 105.000000"
 preserveAspectRatio="xMidYMid meet">

<g transform="translate(0.000000,105.000000) scale(0.100000,-0.100000)"
fill="#000000" stroke="none">
<path d="M192 798 c-17 -17 -17 -399 0 -416 9 -9 98 -12 340 -12 313 0 328 1
338 19 6 12 10 95 10 201 0 106 -4 189 -10 201 -10 18 -23 19 -170 19 -136 0
-160 -2 -160 -15 0 -13 23 -15 150 -15 147 0 150 0 155 -22 3 -13 4 -97 3
-188 l-3 -165 -315 0 -315 0 0 185 0 185 153 3 c126 2 152 5 152 17 0 13 -25
15 -158 15 -110 0 -162 -4 -170 -12z"/>
<path d="M120 328 c0 -17 19 -18 411 -18 386 0 410 1 407 18 -3 16 -31 17
-411 18 -389 1 -407 0 -407 -18z"/>
</g>
</svg>
